<svg xmlns="http://www.w3.org/2000/svg" viewBox="0 0 1200 620" role="img" aria-labelledby="title desc">
<title id="title">filepackR workflow animation</title>
<desc id="desc">A mixed packet enters filepackR, is scanned with OCR, sorted into organized PDF files, reviewed, and marked audit ready.</desc>
<style>
  :root{
    --navy:#1a2744;
    --blue:#2563eb;
    --teal:#0f766e;
    --ink:#31405c;
    --muted:#6b7b92;
    --line:#dce6f1;
    --bg:#f8fbff;
    --green:#15956f;
    --amber:#d97706;
  }
  .bg{fill:#f8fbff}
  .panel{fill:#fff;stroke:#dce6f1;stroke-width:2}
  .label{font:700 18px Inter,Segoe UI,Arial,sans-serif;fill:#1a2744}
  .small{font:700 13px Inter,Segoe UI,Arial,sans-serif;fill:#66758b}
  .tiny{font:700 11px Inter,Segoe UI,Arial,sans-serif;fill:#748196;letter-spacing:.04em}
  .caption{font:800 15px Inter,Segoe UI,Arial,sans-serif;fill:#1a2744}
  .white{fill:#fff}
  .navy{fill:#1a2744}
  .blue{fill:#2563eb}
  .teal{fill:#0f766e}
  .line{stroke:#dce6f1;stroke-width:2}
  .route{fill:none;stroke:#2563eb;stroke-width:5;stroke-linecap:round;stroke-dasharray:14 12}
  .route-teal{fill:none;stroke:#0f766e;stroke-width:5;stroke-linecap:round;stroke-dasharray:14 12}
  .route-amber{fill:none;stroke:#d97706;stroke-width:5;stroke-linecap:round;stroke-dasharray:14 12}
  .shadow{filter:url(#shadow)}
  .doc{transform-box:fill-box;transform-origin:center}
  .packet{animation:packetIn 9s ease-in-out infinite}
  .beam{animation:scan 9s ease-in-out infinite}
  .ocrText{animation:ocrPulse 9s ease-in-out infinite}
  .r1{animation:route1 9s ease-in-out infinite}
  .r2{animation:route2 9s ease-in-out infinite}
  .r3{animation:route3 9s ease-in-out infinite}
  .r4{animation:route4 9s ease-in-out infinite}
  .card1{animation:card1 9s ease-in-out infinite}
  .card2{animation:card2 9s ease-in-out infinite}
  .card3{animation:card3 9s ease-in-out infinite}
  .card4{animation:card4 9s ease-in-out infinite}
  .review{animation:review 9s ease-in-out infinite}
  .audit{animation:auditReady 9s ease-in-out infinite}
  .check{animation:checkPop 9s ease-in-out infinite}
  .progress{animation:progress 9s ease-in-out infinite}
  .dash{animation:dash 1.2s linear infinite}
  @keyframes packetIn{
    0%,7%{transform:translateX(-85px);opacity:0}
    14%,87%{transform:translateX(0);opacity:1}
    96%,100%{transform:translateX(15px);opacity:0}
  }
  @keyframes scan{
    0%,18%{transform:translateY(-95px);opacity:0}
    24%{opacity:1}
    38%{transform:translateY(95px);opacity:1}
    42%,100%{transform:translateY(95px);opacity:0}
  }
  @keyframes ocrPulse{
    0%,17%{opacity:.15}
    24%,40%{opacity:1}
    44%,100%{opacity:.45}
  }
  @keyframes route1{0%,35%{opacity:0}40%,100%{opacity:1}}
  @keyframes route2{0%,39%{opacity:0}44%,100%{opacity:1}}
  @keyframes route3{0%,43%{opacity:0}48%,100%{opacity:1}}
  @keyframes route4{0%,47%{opacity:0}52%,100%{opacity:1}}
  @keyframes card1{0%,39%{transform:translateX(45px);opacity:0}46%,100%{transform:translateX(0);opacity:1}}
  @keyframes card2{0%,43%{transform:translateX(45px);opacity:0}50%,100%{transform:translateX(0);opacity:1}}
  @keyframes card3{0%,47%{transform:translateX(45px);opacity:0}54%,100%{transform:translateX(0);opacity:1}}
  @keyframes card4{0%,51%{transform:translateX(45px);opacity:0}58%,100%{transform:translateX(0);opacity:1}}
  @keyframes review{0%,57%{opacity:0;transform:translateY(12px)}63%,76%{opacity:1;transform:translateY(0)}82%,100%{opacity:.25}}
  @keyframes auditReady{0%,72%{opacity:0;transform:scale(.92)}80%,94%{opacity:1;transform:scale(1)}100%{opacity:0;transform:scale(1.02)}}
  @keyframes checkPop{0%,74%{opacity:0;transform:scale(.4)}82%,96%{opacity:1;transform:scale(1)}100%{opacity:0}}
  @keyframes progress{0%,17%{width:0}40%{width:118px}58%{width:188px}78%,100%{width:235px}}
  @keyframes dash{to{stroke-dashoffset:-52}}
  @media (prefers-reduced-motion:reduce){
    *{animation:none!important}
  }
</style>
<defs>
  <filter id="shadow" x="-20%" y="-20%" width="140%" height="140%">
    <feDropShadow dx="0" dy="10" stdDeviation="10" flood-color="#1a2744" flood-opacity=".12"/>
  </filter>
  <linearGradient id="blueGrad" x1="0" x2="1">
    <stop offset="0" stop-color="#1a2744"/>
    <stop offset="1" stop-color="#2563eb"/>
  </linearGradient>
  <linearGradient id="tealGrad" x1="0" x2="1">
    <stop offset="0" stop-color="#0f766e"/>
    <stop offset="1" stop-color="#2563eb"/>
  </linearGradient>
</defs>

<rect class="bg" width="1200" height="620"/>
<text x="52" y="52" class="label">From mixed packet to audit-ready records</text>
<text x="52" y="78" class="small">A local-first workflow that sorts documents, surfaces exceptions, and keeps your team in control.</text>

<!-- Step labels -->
<g>
  <rect x="52" y="108" width="186" height="36" rx="18" fill="#e9f2ff"/>
  <text x="145" y="131" text-anchor="middle" class="caption">1. Packet Intake</text>
  <rect x="282" y="108" width="196" height="36" rx="18" fill="#e5f6f3"/>
  <text x="380" y="131" text-anchor="middle" class="caption">2. OCR Analysis</text>
  <rect x="532" y="108" width="180" height="36" rx="18" fill="#e9f2ff"/>
  <text x="622" y="131" text-anchor="middle" class="caption">3. Smart Sorting</text>
  <rect x="816" y="108" width="180" height="36" rx="18" fill="#e5f6f3"/>
  <text x="906" y="131" text-anchor="middle" class="caption">4. Review</text>
  <rect x="1005" y="108" width="160" height="36" rx="18" fill="#e9f2ff"/>
  <text x="1085" y="131" text-anchor="middle" class="caption">5. Audit Ready</text>
</g>

<!-- Incoming packet -->
<g class="packet shadow">
  <rect x="62" y="235" width="142" height="176" rx="16" fill="#fff" stroke="#dce6f1" stroke-width="2"/>
  <rect x="74" y="218" width="142" height="176" rx="16" fill="#fff" stroke="#dce6f1" stroke-width="2"/>
  <rect x="86" y="201" width="142" height="176" rx="16" fill="#fff" stroke="#dce6f1" stroke-width="2"/>
  <path d="M194 201h34v34" fill="#eaf1ff"/>
  <rect x="106" y="248" width="84" height="8" rx="4" fill="#2563eb"/>
  <rect x="106" y="270" width="96" height="7" rx="3.5" fill="#9ebcf8"/>
  <rect x="106" y="290" width="78" height="7" rx="3.5" fill="#c3d4f7"/>
  <rect x="106" y="326" width="95" height="7" rx="3.5" fill="#c3d4f7"/>
  <text x="145" y="439" text-anchor="middle" class="small">Combined scan</text>
</g>

<!-- Processor -->
<g class="shadow">
  <rect x="282" y="188" width="196" height="266" rx="22" class="panel"/>
  <rect x="306" y="216" width="148" height="150" rx="14" fill="#f5f9ff" stroke="#dce6f1" stroke-width="2"/>
  <path d="M326 245h72M326 268h92M326 291h78M326 314h98" stroke="#b7c9e7" stroke-width="8" stroke-linecap="round"/>
  <rect class="beam" x="305" y="282" width="150" height="12" rx="6" fill="#0f766e" opacity=".8"/>
  <text x="380" y="398" text-anchor="middle" class="caption">OCR + rules engine</text>
  <text x="380" y="422" text-anchor="middle" class="small">Analyzing page content locally</text>
  <rect x="317" y="440" width="126" height="7" rx="4" fill="#e7edf5"/>
  <rect class="progress" x="317" y="440" width="0" height="7" rx="4" fill="url(#tealGrad)"/>
  <g class="ocrText">
    <circle cx="328" cy="174" r="5" fill="#0f766e"/>
    <circle cx="346" cy="174" r="5" fill="#2563eb"/>
    <circle cx="364" cy="174" r="5" fill="#0f766e"/>
  </g>
</g>

<!-- Routes -->
<g class="dash">
  <path class="route r1" d="M478 246 C520 246,520 217,566 217"/>
  <path class="route-teal r2" d="M478 292 C532 292,520 287,566 287"/>
  <path class="route r3" d="M478 338 C532 338,520 357,566 357"/>
  <path class="route-amber r4" d="M478 384 C532 384,520 427,566 427"/>
</g>

<!-- Sorted outputs -->
<g class="card1 shadow">
  <rect x="566" y="186" width="214" height="62" rx="14" class="panel"/>
  <rect x="584" y="203" width="26" height="30" rx="4" fill="#dbeafe"/>
  <path d="M590 212h14M590 219h14M590 226h10" stroke="#2563eb" stroke-width="2" stroke-linecap="round"/>
  <text x="626" y="211" class="caption">Job Application.pdf</text>
  <text x="626" y="231" class="tiny">CLASSIFIED</text>
</g>
<g class="card2 shadow">
  <rect x="566" y="256" width="214" height="62" rx="14" class="panel"/>
  <rect x="584" y="273" width="26" height="30" rx="4" fill="#d7f3ee"/>
  <path d="M590 282h14M590 289h14M590 296h10" stroke="#0f766e" stroke-width="2" stroke-linecap="round"/>
  <text x="626" y="281" class="caption">I-9 Verification.pdf</text>
  <text x="626" y="301" class="tiny">CLASSIFIED</text>
</g>
<g class="card3 shadow">
  <rect x="566" y="326" width="214" height="62" rx="14" class="panel"/>
  <rect x="584" y="343" width="26" height="30" rx="4" fill="#dbeafe"/>
  <path d="M590 352h14M590 359h14M590 366h10" stroke="#2563eb" stroke-width="2" stroke-linecap="round"/>
  <text x="626" y="351" class="caption">Payroll.pdf</text>
  <text x="626" y="371" class="tiny">CLASSIFIED</text>
</g>
<g class="card4 shadow">
  <rect x="566" y="396" width="214" height="62" rx="14" class="panel"/>
  <rect x="584" y="413" width="26" height="30" rx="4" fill="#fff3dc"/>
  <path d="M590 422h14M590 429h14M590 436h10" stroke="#d97706" stroke-width="2" stroke-linecap="round"/>
  <text x="626" y="421" class="caption">CPS Authorization.pdf</text>
  <text x="626" y="441" class="tiny" fill="#d97706">REVIEW FLAGGED</text>
</g>

<!-- Review center -->
<g class="review shadow">
  <rect x="828" y="214" width="150" height="212" rx="18" class="panel"/>
  <text x="903" y="246" text-anchor="middle" class="caption">Review Queue</text>
  <line x1="850" y1="264" x2="956" y2="264" class="line"/>
  <rect x="851" y="290" width="18" height="18" rx="4" fill="#fff3dc" stroke="#d97706" stroke-width="2"/>
  <path d="M855 299h10" stroke="#d97706" stroke-width="3" stroke-linecap="round"/>
  <text x="880" y="304" class="small">1 item to review</text>
  <rect x="851" y="330" width="104" height="34" rx="9" fill="#2563eb"/>
  <text x="903" y="352" text-anchor="middle" class="small white">Confirm + save</text>
  <circle cx="903" cy="394" r="14" fill="#e4f7f3"/>
  <path d="M897 394l4 4 8-9" fill="none" stroke="#0f766e" stroke-width="3" stroke-linecap="round" stroke-linejoin="round"/>
</g>

<!-- Audit ready -->
<g class="audit shadow">
  <rect x="1010" y="218" width="148" height="202" rx="20" fill="#fff" stroke="#dce6f1" stroke-width="2"/>
  <circle cx="1084" cy="283" r="45" fill="#e4f7f3"/>
  <path class="check" d="M1058 283l18 18 34-40" fill="none" stroke="#0f766e" stroke-width="12" stroke-linecap="round" stroke-linejoin="round"/>
  <text x="1084" y="357" text-anchor="middle" class="caption">Audit ready</text>
  <text x="1084" y="382" text-anchor="middle" class="small">Organized records</text>
  <text x="1084" y="401" text-anchor="middle" class="small">with fewer gaps</text>
</g>

<!-- bottom message -->
<rect x="52" y="514" width="1112" height="63" rx="18" fill="#fff" stroke="#dce6f1" stroke-width="2"/>
<text x="82" y="541" class="caption">filepackR handles the repeatable work.</text>
<text x="82" y="562" class="small">Your staff focuses on exceptions, quality review, and the records that genuinely need attention.</text>
</svg>